<svg height="454pt" viewBox="-7 0 454 454.07399" width="454pt" xmlns="http://www.w3.org/2000/svg"><path d="m164.15625 224.203125 37.441406-197.089844c.925782-4.214843-1.527344-8.441406-5.648437-9.726562l-64.105469-17.183594c-4.210938-.941406-8.441406 1.488281-9.75 5.597656l-66.296875 189.960938c-2.753906 10.515625-1.359375 21.6875 3.902344 31.199219 5.082031 9.378906 13.785156 16.257812 24.082031 19.03125 4.265625 1.144531 6.796875 5.527343 5.65625 9.792968l-43.007812 160.472656c-1.144532 4.269532-5.53125 6.800782-9.800782 5.65625l-11.398437-3.054687c-8.5-2.203125-17.511719.6875-23.136719 7.429687l-2.0585938 2.402344 94.7539058 25.382813-.59375-3.089844c-1.496093-8.652344-7.855468-15.667969-16.328124-18l-10.335938-2.773437c-4.261719-1.144532-6.792969-5.527344-5.652344-9.792969l43.007813-160.496094c1.140625-4.269531 5.53125-6.800781 9.796875-5.65625 21.957031 5.316406 44.078125-8.125 49.472656-30.0625zm0 0"/><path d="m437.292969 426.289062c-5.628907-6.738281-14.636719-9.632812-23.136719-7.429687l-11.398438 3.054687c-4.269531 1.144532-8.65625-1.386718-9.800781-5.65625l-43.007812-160.496093c-1.140625-4.265625 1.390625-8.648438 5.65625-9.792969 10.296875-2.773438 19.007812-9.652344 24.085937-19.03125 5.324219-9.695312 6.664063-21.078125 3.738282-31.742188l-66.136719-189.394531c-1.304688-4.113281-5.539063-6.542969-9.753907-5.597656l-64.101562 17.160156c-4.121094 1.285157-6.574219 5.507813-5.648438 9.726563l37.601563 197.671875c5.601563 21.675781 27.589844 34.816406 49.335937 29.488281.675782-.183594 1.375-.277344 2.078126-.28125 3.621093.003906 6.785156 2.441406 7.71875 5.9375l43.007812 160.496094c1.140625 4.265625-1.390625 8.648437-5.652344 9.792968l-10.339844 2.773438c-8.46875 2.332031-14.828124 9.34375-16.324218 18l-.59375 3.089844 94.75-25.382813zm0 0"/></svg>