<svg id="Layer_1" height="512" viewBox="0 0 512 512" width="512" xmlns="http://www.w3.org/2000/svg" data-name="Layer 1"><path d="m397.925 490h-283.85a6 6 0 0 0 0 12h283.85a6 6 0 0 0 0-12z"/><path d="m188.39 357.516v-20.585h-78.33a146.383 146.383 0 0 0 2.316 20.585z"/><path d="m203.993 402.481a3.608 3.608 0 0 0 3.6-3.6v-36.748a18.066 18.066 0 0 1 36.132 0v84.372a3.6 3.6 0 0 0 3.6 3.6 3.613 3.613 0 0 0 3.607-3.609v-109.565h-50.542v61.947a3.607 3.607 0 0 0 3.603 3.603z"/><path d="m262.936 357.516h136.687a146.253 146.253 0 0 0 2.317-20.585h-139z"/><path d="m188.39 369.516h-73.267a146.057 146.057 0 0 0 281.753 0h-133.94v76.984a15.626 15.626 0 0 1 -15.6 15.609h-.009a15.6 15.6 0 0 1 -15.6-15.6v-84.376a6.066 6.066 0 0 0 -12.132 0v36.745a15.6 15.6 0 0 1 -31.207 0z"/><path d="m257.71 96.75c.013.017.027.032.04.049s.021.032.032.047l85.153 110.931-85.116 65.1a6 6 0 0 0 -1.121 8.41 62.582 62.582 0 0 0 99.421-76.035q-.183-.238-.386-.456c-.105-.168-.218-.333-.341-.493l-84.431-109.996 13.2-10.1a6 6 0 0 0 1.222-8.274l-20.128-27.924c-.033-.046-.067-.091-.1-.137a1.546 1.546 0 0 1 .288-2.165l10.487-8.019a15.43 15.43 0 1 0 -18.747-24.513l-28.466 21.769a13.56 13.56 0 0 0 -2.569 18.936z"/></svg>