<?xml version="1.0" encoding="iso-8859-1"?>
<!-- Generator: Adobe Illustrator 19.0.0, SVG Export Plug-In . SVG Version: 6.00 Build 0)  -->
<svg version="1.1" id="Capa_1" xmlns="http://www.w3.org/2000/svg" xmlns:xlink="http://www.w3.org/1999/xlink" x="0px" y="0px"
	 viewBox="0 0 511.989 511.989" style="enable-background:new 0 0 511.989 511.989;" xml:space="preserve">
<g>
	<g>
		<path d="M507.77,53.179c-3.04-3.296-7.296-5.184-11.776-5.184h-480c-4.48,0-8.736,1.888-11.776,5.184
			c-3.008,3.296-4.544,7.712-4.16,12.16l32,384c0.672,8.288,7.616,14.656,15.936,14.656h416c8.32,0,15.264-6.368,15.936-14.656
			l32-384C512.314,60.859,510.81,56.443,507.77,53.179z M457.466,333.722c-20.8,21.632-49.344,34.272-79.552,34.272h-57.92h-185.92
			c-30.208,0-58.752-12.64-79.552-34.24L33.37,79.995h445.248L457.466,333.722z"/>
	</g>
</g>
<g>
	<g>
		<path d="M251.322,180.698l-48-48c-6.24-6.24-16.384-6.24-22.624,0l-48,48c-6.24,6.24-6.24,16.384,0,22.624l47.968,48
			c3.136,3.104,7.232,4.672,11.328,4.672s8.192-1.568,11.328-4.672l48-48C257.562,197.083,257.562,186.938,251.322,180.698z"/>
	</g>
</g>
<g>
	<g>
		<path d="M379.322,292.698l-48-48c-6.24-6.24-16.384-6.24-22.624,0l-48,48c-6.24,6.24-6.24,16.384,0,22.624l48,48
			c3.104,3.104,7.2,4.672,11.296,4.672s8.192-1.568,11.328-4.672l48-48C385.562,309.083,385.562,298.938,379.322,292.698z"/>
	</g>
</g>
<g>
</g>
<g>
</g>
<g>
</g>
<g>
</g>
<g>
</g>
<g>
</g>
<g>
</g>
<g>
</g>
<g>
</g>
<g>
</g>
<g>
</g>
<g>
</g>
<g>
</g>
<g>
</g>
<g>
</g>
</svg>
